<svg width="20" height="24" viewBox="0 0 20 24" fill="none" xmlns="http://www.w3.org/2000/svg">
<path d="M9.92444 4.5C10.96 4.5 11.7994 3.66053 11.7994 2.625C11.7994 1.58947 10.96 0.75 9.92444 0.75C8.8889 0.75 8.04944 1.58947 8.04944 2.625C8.04944 3.66053 8.8889 4.5 9.92444 4.5Z" stroke="#591567" stroke-width="1.5" stroke-linejoin="round"/>
<path d="M7.49768 12.8644C7.63362 12.0178 7.69456 11.1994 7.47424 10.6336C7.28674 10.147 6.87893 9.87468 6.38674 9.68906L2.0494 8.28562C1.4869 8.09812 0.961432 7.78406 0.924401 7.16343C0.877526 6.36656 1.58065 5.85093 2.28378 6.03843C2.28378 6.03843 6.40878 7.49812 9.9244 7.49812C13.44 7.49812 17.5182 6.045 17.5182 6.045C18.3619 5.81062 18.9244 6.46687 18.9244 7.16015C18.9244 7.82625 18.4088 8.06062 17.7994 8.28234L13.6744 9.77812C13.2994 9.91875 12.69 10.2 12.4557 10.6303C12.1744 11.1342 12.2213 12.0145 12.3572 12.8611L12.6338 14.25L14.3874 21.9328C14.5186 22.5492 14.0921 23.1253 13.478 23.2331C12.8639 23.3409 12.3619 22.9219 12.18 22.3256L10.4194 16.8914C10.3347 16.6308 10.2597 16.3672 10.1944 16.1006L9.9244 15L9.67596 16.0148C9.59721 16.3383 9.50659 16.6583 9.40409 16.9748L7.6744 22.3209C7.4869 22.9233 6.99471 23.3405 6.38065 23.2331C5.76659 23.1258 5.33065 22.5023 5.46846 21.9328L7.22112 14.2533L7.49768 12.8644Z" stroke="#591567" stroke-width="1.5" stroke-linejoin="round"/>
</svg>
