<svg width="24" height="14" viewBox="0 0 24 14" fill="none" xmlns="http://www.w3.org/2000/svg">
<path d="M3.75 10L8.625 5.125M16.125 8.125L20.25 4L16.125 8.125ZM10.875 5.125L13.875 8.125L10.875 5.125Z" stroke="#591567" stroke-width="1.52232" stroke-linecap="round" stroke-linejoin="round"/>
<path d="M21.375 4C21.9963 4 22.5 3.49632 22.5 2.875C22.5 2.25368 21.9963 1.75 21.375 1.75C20.7537 1.75 20.25 2.25368 20.25 2.875C20.25 3.49632 20.7537 4 21.375 4Z" stroke="#591567" stroke-width="1.52232" stroke-linecap="round" stroke-linejoin="round"/>
<path d="M15 10.375C15.6213 10.375 16.125 9.87132 16.125 9.25C16.125 8.62868 15.6213 8.125 15 8.125C14.3787 8.125 13.875 8.62868 13.875 9.25C13.875 9.87132 14.3787 10.375 15 10.375Z" stroke="#591567" stroke-width="1.52232" stroke-linecap="round" stroke-linejoin="round"/>
<path d="M9.75 5.125C10.3713 5.125 10.875 4.62132 10.875 4C10.875 3.37868 10.3713 2.875 9.75 2.875C9.12868 2.875 8.625 3.37868 8.625 4C8.625 4.62132 9.12868 5.125 9.75 5.125Z" stroke="#591567" stroke-width="1.52232" stroke-linecap="round" stroke-linejoin="round"/>
<path d="M2.625 12.25C3.24632 12.25 3.75 11.7463 3.75 11.125C3.75 10.5037 3.24632 10 2.625 10C2.00368 10 1.5 10.5037 1.5 11.125C1.5 11.7463 2.00368 12.25 2.625 12.25Z" stroke="#591567" stroke-width="1.52232" stroke-linecap="round" stroke-linejoin="round"/>
</svg>
