<svg width="24" height="22" viewBox="0 0 24 22" fill="none" xmlns="http://www.w3.org/2000/svg">
<path d="M7.24915 14.9484V1.27832L8.74915 2.03777L10.2491 1.27832L11.7463 2.03777L13.2637 1.27832L14.7491 2.03777L16.2393 1.27832L17.736 2.03777L19.2491 1.27832L20.7496 2.03777L22.2491 1.27832V11.9106" stroke="#591567" stroke-width="1.5189" stroke-linejoin="round"/>
<path d="M22.2491 11.9106V17.2268C22.2491 18.2339 21.8541 19.1997 21.1508 19.9118C20.4475 20.624 19.4937 21.024 18.4991 21.024V21.024C17.5046 21.024 16.5508 20.624 15.8475 19.9118C15.1442 19.1997 14.7491 18.2339 14.7491 17.2268V14.9484H1.99914C1.90041 14.9476 1.80249 14.9666 1.7111 15.0044C1.61971 15.0423 1.53668 15.0982 1.46686 15.1689C1.39704 15.2396 1.34183 15.3237 1.30445 15.4162C1.26707 15.5088 1.24827 15.6079 1.24914 15.7079C1.24914 18.7457 1.56508 21.024 4.99914 21.024H18.4991" stroke="#591567" stroke-width="1.5189" stroke-linejoin="round"/>
<path d="M13.2491 9.63233H19.2491M10.2491 5.83508H19.2491H10.2491Z" stroke="#591567" stroke-width="1.5189" stroke-linecap="round" stroke-linejoin="round"/>
</svg>
