<svg width="23" height="20" viewBox="0 0 23 20" fill="none" xmlns="http://www.w3.org/2000/svg">
<path d="M1.64911 13.75L21.1491 13.75C21.5633 13.75 21.8991 13.4142 21.8991 13V2.5C21.8991 2.08579 21.5633 1.75 21.1491 1.75L1.64911 1.75C1.2349 1.75 0.899109 2.08579 0.899109 2.5V13C0.899109 13.4142 1.2349 13.75 1.64911 13.75Z" stroke="#591567" stroke-width="1.53756" stroke-linejoin="round"/>
<path d="M3.89911 18.25H18.8991M2.39911 16H20.3991H2.39911Z" stroke="#591567" stroke-width="1.53756" stroke-linecap="round" stroke-linejoin="round"/>
<path d="M11.3991 11.5C13.4702 11.5 15.1491 9.82107 15.1491 7.75C15.1491 5.67893 13.4702 4 11.3991 4C9.32804 4 7.64911 5.67893 7.64911 7.75C7.64911 9.82107 9.32804 11.5 11.3991 11.5Z" stroke="#591567" stroke-width="1.53756" stroke-linecap="round" stroke-linejoin="round"/>
<path d="M0.899109 10C1.39157 10 1.8792 10.097 2.33417 10.2855C2.78914 10.4739 3.20254 10.7501 3.55076 11.0983C3.89898 11.4466 4.1752 11.86 4.36366 12.3149C4.55211 12.7699 4.64911 13.2575 4.64911 13.75M21.8991 5.5C20.9045 5.5 19.9507 5.10491 19.2475 4.40165C18.5442 3.69839 18.1491 2.74456 18.1491 1.75L21.8991 5.5ZM0.899109 5.5C1.39157 5.5 1.8792 5.403 2.33417 5.21455C2.78914 5.02609 3.20254 4.74987 3.55076 4.40165C3.89898 4.05343 4.1752 3.64003 4.36366 3.18506C4.55211 2.73009 4.64911 2.24246 4.64911 1.75L0.899109 5.5ZM21.8991 10C20.9045 10 19.9507 10.3951 19.2475 11.0983C18.5442 11.8016 18.1491 12.7554 18.1491 13.75L21.8991 10Z" stroke="#591567" stroke-width="1.53756" stroke-linecap="round" stroke-linejoin="round"/>
</svg>
